<mxfile host="Electron" modified="2024-01-06T03:18:05.288Z" agent="Mozilla/5.0 (Windows NT 10.0; Win64; x64) AppleWebKit/537.36 (KHTML, like Gecko) draw.io/22.1.16 Chrome/120.0.6099.109 Electron/28.1.0 Safari/537.36" etag="ZqxCXkUTeWYNxG0h4Lih" version="22.1.16" type="device">
  <diagram name="Page-1" id="zHE7dzKNxdLfFaWkAdhi">
    <mxGraphModel dx="1078" dy="1658" grid="1" gridSize="10" guides="1" tooltips="1" connect="1" arrows="1" fold="1" page="0" pageScale="1" pageWidth="850" pageHeight="1100" math="0" shadow="0">
      <root>
        <mxCell id="0" />
        <mxCell id="1" parent="0" />
        <mxCell id="DHTgpNYXtuhxtt-2HGvQ-1" value="&lt;font style=&quot;font-size: 20px;&quot;&gt;Questions&lt;/font&gt;" style="rounded=0;whiteSpace=wrap;html=1;" parent="1" vertex="1">
          <mxGeometry x="1400" y="1422.5" width="180" height="90" as="geometry" />
        </mxCell>
        <mxCell id="DHTgpNYXtuhxtt-2HGvQ-2" value="" style="endArrow=none;html=1;rounded=0;exitX=0.5;exitY=0;exitDx=0;exitDy=0;entryX=1;entryY=1;entryDx=0;entryDy=0;" parent="1" source="DHTgpNYXtuhxtt-2HGvQ-1" target="DHTgpNYXtuhxtt-2HGvQ-3" edge="1">
          <mxGeometry width="50" height="50" relative="1" as="geometry">
            <mxPoint x="1500" y="1480" as="sourcePoint" />
            <mxPoint x="1380" y="1330" as="targetPoint" />
          </mxGeometry>
        </mxCell>
        <mxCell id="DHTgpNYXtuhxtt-2HGvQ-3" value="&lt;font style=&quot;font-size: 18px;&quot;&gt;&lt;u&gt;ID&lt;/u&gt;&lt;/font&gt;" style="ellipse;whiteSpace=wrap;html=1;" parent="1" vertex="1">
          <mxGeometry x="1200" y="1260" width="120" height="80" as="geometry" />
        </mxCell>
        <mxCell id="DHTgpNYXtuhxtt-2HGvQ-4" value="" style="endArrow=none;html=1;rounded=0;exitX=0.5;exitY=0;exitDx=0;exitDy=0;entryX=0.67;entryY=0.954;entryDx=0;entryDy=0;entryPerimeter=0;" parent="1" source="DHTgpNYXtuhxtt-2HGvQ-1" target="DHTgpNYXtuhxtt-2HGvQ-5" edge="1">
          <mxGeometry width="50" height="50" relative="1" as="geometry">
            <mxPoint x="1553" y="1400" as="sourcePoint" />
            <mxPoint x="1409.5600000000004" y="1318" as="targetPoint" />
          </mxGeometry>
        </mxCell>
        <mxCell id="DHTgpNYXtuhxtt-2HGvQ-5" value="&lt;font style=&quot;font-size: 18px;&quot;&gt;Title&lt;/font&gt;" style="ellipse;whiteSpace=wrap;html=1;" parent="1" vertex="1">
          <mxGeometry x="1345" y="1240" width="120" height="80" as="geometry" />
        </mxCell>
        <mxCell id="DHTgpNYXtuhxtt-2HGvQ-6" value="" style="endArrow=none;html=1;rounded=0;exitX=0.5;exitY=0;exitDx=0;exitDy=0;entryX=0.29;entryY=0.959;entryDx=0;entryDy=0;entryPerimeter=0;" parent="1" source="DHTgpNYXtuhxtt-2HGvQ-1" target="DHTgpNYXtuhxtt-2HGvQ-7" edge="1">
          <mxGeometry width="50" height="50" relative="1" as="geometry">
            <mxPoint x="1490" y="1430" as="sourcePoint" />
            <mxPoint x="1640" y="1370" as="targetPoint" />
          </mxGeometry>
        </mxCell>
        <mxCell id="DHTgpNYXtuhxtt-2HGvQ-7" value="&lt;font style=&quot;font-size: 18px;&quot;&gt;Answer&lt;/font&gt;" style="ellipse;whiteSpace=wrap;html=1;" parent="1" vertex="1">
          <mxGeometry x="1490" y="1260" width="120" height="80" as="geometry" />
        </mxCell>
        <mxCell id="DHTgpNYXtuhxtt-2HGvQ-8" value="" style="endArrow=none;html=1;rounded=0;exitX=0.5;exitY=1;exitDx=0;exitDy=0;entryX=0.692;entryY=0.05;entryDx=0;entryDy=0;entryPerimeter=0;" parent="1" source="DHTgpNYXtuhxtt-2HGvQ-1" target="DHTgpNYXtuhxtt-2HGvQ-9" edge="1">
          <mxGeometry width="50" height="50" relative="1" as="geometry">
            <mxPoint x="1475" y="1509.9999999999995" as="sourcePoint" />
            <mxPoint x="1380" y="1610" as="targetPoint" />
          </mxGeometry>
        </mxCell>
        <mxCell id="DHTgpNYXtuhxtt-2HGvQ-9" value="&lt;font style=&quot;font-size: 18px;&quot;&gt;OptionTwo&lt;/font&gt;" style="ellipse;whiteSpace=wrap;html=1;direction=east;" parent="1" vertex="1">
          <mxGeometry x="1330" y="1620" width="120" height="80" as="geometry" />
        </mxCell>
        <mxCell id="DHTgpNYXtuhxtt-2HGvQ-10" value="" style="endArrow=none;html=1;rounded=0;entryX=0.5;entryY=0;entryDx=0;entryDy=0;exitX=0.5;exitY=1;exitDx=0;exitDy=0;" parent="1" source="DHTgpNYXtuhxtt-2HGvQ-1" edge="1">
          <mxGeometry width="50" height="50" relative="1" as="geometry">
            <mxPoint x="1475" y="1509.9999999999995" as="sourcePoint" />
            <mxPoint x="1550" y="1640" as="targetPoint" />
          </mxGeometry>
        </mxCell>
        <mxCell id="DHTgpNYXtuhxtt-2HGvQ-11" value="&lt;font style=&quot;font-size: 18px;&quot;&gt;OptionThree&lt;/font&gt;" style="ellipse;whiteSpace=wrap;html=1;direction=east;" parent="1" vertex="1">
          <mxGeometry x="1490" y="1645" width="120" height="80" as="geometry" />
        </mxCell>
        <mxCell id="DHTgpNYXtuhxtt-2HGvQ-12" value="" style="endArrow=none;html=1;rounded=0;exitX=0.5;exitY=1;exitDx=0;exitDy=0;entryX=0;entryY=0;entryDx=0;entryDy=0;" parent="1" source="DHTgpNYXtuhxtt-2HGvQ-1" target="DHTgpNYXtuhxtt-2HGvQ-13" edge="1">
          <mxGeometry width="50" height="50" relative="1" as="geometry">
            <mxPoint x="1475" y="1509.9999999999995" as="sourcePoint" />
            <mxPoint x="1640" y="1650" as="targetPoint" />
          </mxGeometry>
        </mxCell>
        <mxCell id="DHTgpNYXtuhxtt-2HGvQ-13" value="&lt;font style=&quot;font-size: 18px;&quot;&gt;OptionFour&lt;/font&gt;" style="ellipse;whiteSpace=wrap;html=1;direction=east;" parent="1" vertex="1">
          <mxGeometry x="1620" y="1590" width="120" height="80" as="geometry" />
        </mxCell>
        <mxCell id="DHTgpNYXtuhxtt-2HGvQ-15" value="" style="endArrow=none;html=1;rounded=0;exitX=0.5;exitY=1;exitDx=0;exitDy=0;entryX=1;entryY=0;entryDx=0;entryDy=0;" parent="1" source="DHTgpNYXtuhxtt-2HGvQ-1" target="DHTgpNYXtuhxtt-2HGvQ-16" edge="1">
          <mxGeometry width="50" height="50" relative="1" as="geometry">
            <mxPoint x="1475" y="1509.9999999999995" as="sourcePoint" />
            <mxPoint x="1310" y="1550" as="targetPoint" />
          </mxGeometry>
        </mxCell>
        <mxCell id="DHTgpNYXtuhxtt-2HGvQ-16" value="&lt;font style=&quot;font-size: 18px;&quot;&gt;OptionOne&lt;/font&gt;" style="ellipse;whiteSpace=wrap;html=1;direction=east;" parent="1" vertex="1">
          <mxGeometry x="1200" y="1560" width="120" height="80" as="geometry" />
        </mxCell>
        <mxCell id="DHTgpNYXtuhxtt-2HGvQ-17" value="&lt;font style=&quot;font-size: 20px;&quot;&gt;Users&lt;/font&gt;" style="rounded=0;whiteSpace=wrap;html=1;" parent="1" vertex="1">
          <mxGeometry x="310" y="30" width="180" height="90" as="geometry" />
        </mxCell>
        <mxCell id="DHTgpNYXtuhxtt-2HGvQ-18" value="" style="endArrow=none;html=1;rounded=0;exitX=0.5;exitY=0;exitDx=0;exitDy=0;entryX=1;entryY=1;entryDx=0;entryDy=0;" parent="1" source="DHTgpNYXtuhxtt-2HGvQ-17" target="DHTgpNYXtuhxtt-2HGvQ-19" edge="1">
          <mxGeometry width="50" height="50" relative="1" as="geometry">
            <mxPoint x="420" y="90" as="sourcePoint" />
            <mxPoint x="300" y="-60" as="targetPoint" />
          </mxGeometry>
        </mxCell>
        <mxCell id="DHTgpNYXtuhxtt-2HGvQ-19" value="&lt;font style=&quot;font-size: 18px;&quot;&gt;&lt;u&gt;ID&lt;/u&gt;&lt;/font&gt;" style="ellipse;whiteSpace=wrap;html=1;" parent="1" vertex="1">
          <mxGeometry x="120" y="-140" width="120" height="80" as="geometry" />
        </mxCell>
        <mxCell id="DHTgpNYXtuhxtt-2HGvQ-22" value="" style="endArrow=none;html=1;rounded=0;exitX=0.5;exitY=0;exitDx=0;exitDy=0;entryX=0.274;entryY=0.942;entryDx=0;entryDy=0;entryPerimeter=0;" parent="1" source="DHTgpNYXtuhxtt-2HGvQ-17" target="DHTgpNYXtuhxtt-2HGvQ-23" edge="1">
          <mxGeometry width="50" height="50" relative="1" as="geometry">
            <mxPoint x="410" y="40" as="sourcePoint" />
            <mxPoint x="560" y="-20" as="targetPoint" />
          </mxGeometry>
        </mxCell>
        <mxCell id="DHTgpNYXtuhxtt-2HGvQ-23" value="&lt;font style=&quot;font-size: 18px;&quot;&gt;Email&lt;/font&gt;" style="ellipse;whiteSpace=wrap;html=1;" parent="1" vertex="1">
          <mxGeometry x="400" y="-140" width="120" height="80" as="geometry" />
        </mxCell>
        <mxCell id="DHTgpNYXtuhxtt-2HGvQ-24" value="" style="endArrow=none;html=1;rounded=0;exitX=0.5;exitY=1;exitDx=0;exitDy=0;entryX=0.692;entryY=0.05;entryDx=0;entryDy=0;entryPerimeter=0;" parent="1" source="DHTgpNYXtuhxtt-2HGvQ-17" target="DHTgpNYXtuhxtt-2HGvQ-25" edge="1">
          <mxGeometry width="50" height="50" relative="1" as="geometry">
            <mxPoint x="400" y="300" as="sourcePoint" />
            <mxPoint x="300" y="210" as="targetPoint" />
          </mxGeometry>
        </mxCell>
        <mxCell id="DHTgpNYXtuhxtt-2HGvQ-25" value="&lt;font style=&quot;font-size: 18px;&quot;&gt;Gender&lt;/font&gt;" style="ellipse;whiteSpace=wrap;html=1;direction=east;" parent="1" vertex="1">
          <mxGeometry x="250" y="220" width="120" height="80" as="geometry" />
        </mxCell>
        <mxCell id="DHTgpNYXtuhxtt-2HGvQ-26" value="" style="endArrow=none;html=1;rounded=0;entryX=0.5;entryY=0;entryDx=0;entryDy=0;exitX=0.5;exitY=1;exitDx=0;exitDy=0;" parent="1" source="DHTgpNYXtuhxtt-2HGvQ-17" target="DHTgpNYXtuhxtt-2HGvQ-27" edge="1">
          <mxGeometry width="50" height="50" relative="1" as="geometry">
            <mxPoint x="410" y="260" as="sourcePoint" />
            <mxPoint x="460" y="210" as="targetPoint" />
          </mxGeometry>
        </mxCell>
        <mxCell id="DHTgpNYXtuhxtt-2HGvQ-27" value="&lt;font style=&quot;font-size: 18px;&quot;&gt;Profile&lt;br&gt;Image&lt;/font&gt;" style="ellipse;whiteSpace=wrap;html=1;direction=east;" parent="1" vertex="1">
          <mxGeometry x="410" y="240" width="120" height="80" as="geometry" />
        </mxCell>
        <mxCell id="DHTgpNYXtuhxtt-2HGvQ-28" value="" style="endArrow=none;html=1;rounded=0;exitX=0.5;exitY=1;exitDx=0;exitDy=0;entryX=0;entryY=0;entryDx=0;entryDy=0;" parent="1" source="DHTgpNYXtuhxtt-2HGvQ-17" target="DHTgpNYXtuhxtt-2HGvQ-29" edge="1">
          <mxGeometry width="50" height="50" relative="1" as="geometry">
            <mxPoint x="400" y="300" as="sourcePoint" />
            <mxPoint x="560" y="250" as="targetPoint" />
          </mxGeometry>
        </mxCell>
        <mxCell id="DHTgpNYXtuhxtt-2HGvQ-29" value="&lt;font style=&quot;font-size: 18px;&quot;&gt;DOB&lt;/font&gt;" style="ellipse;whiteSpace=wrap;html=1;direction=east;" parent="1" vertex="1">
          <mxGeometry x="540" y="190" width="120" height="80" as="geometry" />
        </mxCell>
        <mxCell id="DHTgpNYXtuhxtt-2HGvQ-30" value="" style="endArrow=none;html=1;rounded=0;exitX=0.5;exitY=0;exitDx=0;exitDy=0;entryX=0.679;entryY=0.969;entryDx=0;entryDy=0;entryPerimeter=0;" parent="1" source="DHTgpNYXtuhxtt-2HGvQ-17" target="DHTgpNYXtuhxtt-2HGvQ-31" edge="1">
          <mxGeometry width="50" height="50" relative="1" as="geometry">
            <mxPoint x="400" y="120" as="sourcePoint" />
            <mxPoint x="230" y="150" as="targetPoint" />
          </mxGeometry>
        </mxCell>
        <mxCell id="DHTgpNYXtuhxtt-2HGvQ-31" value="&lt;font style=&quot;font-size: 18px;&quot;&gt;Password&lt;/font&gt;" style="ellipse;whiteSpace=wrap;html=1;direction=east;" parent="1" vertex="1">
          <mxGeometry x="260" y="-140" width="120" height="80" as="geometry" />
        </mxCell>
        <mxCell id="DHTgpNYXtuhxtt-2HGvQ-32" value="&lt;font style=&quot;font-size: 20px;&quot;&gt;Exams&lt;/font&gt;" style="rounded=0;whiteSpace=wrap;html=1;" parent="1" vertex="1">
          <mxGeometry x="1465" y="30" width="180" height="90" as="geometry" />
        </mxCell>
        <mxCell id="DHTgpNYXtuhxtt-2HGvQ-33" value="" style="endArrow=none;html=1;rounded=0;exitX=0.5;exitY=0;exitDx=0;exitDy=0;entryX=1;entryY=1;entryDx=0;entryDy=0;" parent="1" source="DHTgpNYXtuhxtt-2HGvQ-32" target="DHTgpNYXtuhxtt-2HGvQ-34" edge="1">
          <mxGeometry width="50" height="50" relative="1" as="geometry">
            <mxPoint x="1575" y="90" as="sourcePoint" />
            <mxPoint x="1455" y="-60" as="targetPoint" />
          </mxGeometry>
        </mxCell>
        <mxCell id="DHTgpNYXtuhxtt-2HGvQ-34" value="&lt;font style=&quot;font-size: 18px;&quot;&gt;&lt;u&gt;ID&lt;/u&gt;&lt;/font&gt;" style="ellipse;whiteSpace=wrap;html=1;" parent="1" vertex="1">
          <mxGeometry x="1215" y="-140" width="120" height="80" as="geometry" />
        </mxCell>
        <mxCell id="DHTgpNYXtuhxtt-2HGvQ-35" value="" style="endArrow=none;html=1;rounded=0;exitX=0.5;exitY=0;exitDx=0;exitDy=0;entryX=0.5;entryY=1;entryDx=0;entryDy=0;" parent="1" source="DHTgpNYXtuhxtt-2HGvQ-32" target="DHTgpNYXtuhxtt-2HGvQ-36" edge="1">
          <mxGeometry width="50" height="50" relative="1" as="geometry">
            <mxPoint x="1628" y="10" as="sourcePoint" />
            <mxPoint x="1615" y="-60" as="targetPoint" />
          </mxGeometry>
        </mxCell>
        <mxCell id="DHTgpNYXtuhxtt-2HGvQ-36" value="&lt;font style=&quot;font-size: 18px;&quot;&gt;UserID&lt;/font&gt;" style="ellipse;whiteSpace=wrap;html=1;" parent="1" vertex="1">
          <mxGeometry x="1410" y="-250" width="120" height="80" as="geometry" />
        </mxCell>
        <mxCell id="DHTgpNYXtuhxtt-2HGvQ-47" value="" style="endArrow=none;html=1;rounded=0;exitX=1;exitY=0.5;exitDx=0;exitDy=0;entryX=0;entryY=0.5;entryDx=0;entryDy=0;" parent="1" source="DHTgpNYXtuhxtt-2HGvQ-17" target="DHTgpNYXtuhxtt-2HGvQ-32" edge="1">
          <mxGeometry width="50" height="50" relative="1" as="geometry">
            <mxPoint x="880" y="210" as="sourcePoint" />
            <mxPoint x="930" y="160" as="targetPoint" />
          </mxGeometry>
        </mxCell>
        <mxCell id="DHTgpNYXtuhxtt-2HGvQ-54" value="&lt;font style=&quot;font-size: 40px;&quot;&gt;1&lt;/font&gt;" style="edgeLabel;html=1;align=center;verticalAlign=middle;resizable=0;points=[];" parent="DHTgpNYXtuhxtt-2HGvQ-47" vertex="1" connectable="0">
          <mxGeometry x="-0.9821" relative="1" as="geometry">
            <mxPoint x="31" as="offset" />
          </mxGeometry>
        </mxCell>
        <mxCell id="DHTgpNYXtuhxtt-2HGvQ-55" value="&lt;font style=&quot;font-size: 40px;&quot;&gt;M&lt;/font&gt;" style="edgeLabel;html=1;align=center;verticalAlign=middle;resizable=0;points=[];" parent="DHTgpNYXtuhxtt-2HGvQ-47" vertex="1" connectable="0">
          <mxGeometry x="0.9732" relative="1" as="geometry">
            <mxPoint x="-42" as="offset" />
          </mxGeometry>
        </mxCell>
        <mxCell id="DHTgpNYXtuhxtt-2HGvQ-48" value="&lt;font style=&quot;font-size: 30px;&quot;&gt;Takes&lt;/font&gt;" style="rhombus;whiteSpace=wrap;html=1;" parent="1" vertex="1">
          <mxGeometry x="850" y="-45" width="240" height="240" as="geometry" />
        </mxCell>
        <mxCell id="DHTgpNYXtuhxtt-2HGvQ-51" value="" style="endArrow=none;html=1;rounded=0;entryX=0;entryY=1;entryDx=0;entryDy=0;exitX=0.5;exitY=0;exitDx=0;exitDy=0;" parent="1" source="DHTgpNYXtuhxtt-2HGvQ-1" target="DHTgpNYXtuhxtt-2HGvQ-52" edge="1">
          <mxGeometry width="50" height="50" relative="1" as="geometry">
            <mxPoint x="1480" y="1420" as="sourcePoint" />
            <mxPoint x="1760" y="1430" as="targetPoint" />
          </mxGeometry>
        </mxCell>
        <mxCell id="DHTgpNYXtuhxtt-2HGvQ-52" value="&lt;font style=&quot;font-size: 18px;&quot;&gt;SubjectID&lt;/font&gt;" style="ellipse;whiteSpace=wrap;html=1;" parent="1" vertex="1">
          <mxGeometry x="1620" y="1300" width="120" height="80" as="geometry" />
        </mxCell>
        <mxCell id="XrXv45XWe5ub9CGLgNj5-1" value="" style="endArrow=none;html=1;rounded=0;exitX=0.5;exitY=1;exitDx=0;exitDy=0;entryX=1;entryY=0;entryDx=0;entryDy=0;" parent="1" source="DHTgpNYXtuhxtt-2HGvQ-17" target="XrXv45XWe5ub9CGLgNj5-2" edge="1">
          <mxGeometry width="50" height="50" relative="1" as="geometry">
            <mxPoint x="410" y="130" as="sourcePoint" />
            <mxPoint x="220" y="160" as="targetPoint" />
          </mxGeometry>
        </mxCell>
        <mxCell id="XrXv45XWe5ub9CGLgNj5-2" value="&lt;font style=&quot;font-size: 18px;&quot;&gt;MemberSince&lt;/font&gt;" style="ellipse;whiteSpace=wrap;html=1;direction=east;" parent="1" vertex="1">
          <mxGeometry x="120" y="160" width="120" height="80" as="geometry" />
        </mxCell>
        <mxCell id="XrXv45XWe5ub9CGLgNj5-4" value="&lt;font style=&quot;font-size: 30px;&quot;&gt;Has&lt;/font&gt;" style="rhombus;whiteSpace=wrap;html=1;" parent="1" vertex="1">
          <mxGeometry x="1435" y="240" width="240" height="240" as="geometry" />
        </mxCell>
        <mxCell id="XrXv45XWe5ub9CGLgNj5-8" value="" style="endArrow=none;html=1;rounded=0;entryX=0.5;entryY=1;entryDx=0;entryDy=0;exitX=0.5;exitY=0;exitDx=0;exitDy=0;" parent="1" source="XrXv45XWe5ub9CGLgNj5-4" target="DHTgpNYXtuhxtt-2HGvQ-32" edge="1">
          <mxGeometry width="50" height="50" relative="1" as="geometry">
            <mxPoint x="1555" y="330" as="sourcePoint" />
            <mxPoint x="1370" y="200" as="targetPoint" />
          </mxGeometry>
        </mxCell>
        <mxCell id="XrXv45XWe5ub9CGLgNj5-86" value="&lt;font style=&quot;font-size: 40px;&quot;&gt;1&lt;/font&gt;" style="edgeLabel;html=1;align=center;verticalAlign=middle;resizable=0;points=[];" parent="XrXv45XWe5ub9CGLgNj5-8" vertex="1" connectable="0">
          <mxGeometry x="-0.0119" relative="1" as="geometry">
            <mxPoint as="offset" />
          </mxGeometry>
        </mxCell>
        <mxCell id="XrXv45XWe5ub9CGLgNj5-9" value="" style="endArrow=none;html=1;rounded=0;entryX=0.5;entryY=1;entryDx=0;entryDy=0;exitX=0.5;exitY=0;exitDx=0;exitDy=0;" parent="1" source="XrXv45XWe5ub9CGLgNj5-10" target="XrXv45XWe5ub9CGLgNj5-4" edge="1">
          <mxGeometry width="50" height="50" relative="1" as="geometry">
            <mxPoint x="1555" y="790" as="sourcePoint" />
            <mxPoint x="1555.47" y="570" as="targetPoint" />
          </mxGeometry>
        </mxCell>
        <mxCell id="XrXv45XWe5ub9CGLgNj5-19" value="&lt;font style=&quot;font-size: 40px;&quot;&gt;M&lt;/font&gt;" style="edgeLabel;html=1;align=center;verticalAlign=middle;resizable=0;points=[];" parent="XrXv45XWe5ub9CGLgNj5-9" vertex="1" connectable="0">
          <mxGeometry x="-0.7122" y="1" relative="1" as="geometry">
            <mxPoint x="1" y="-24" as="offset" />
          </mxGeometry>
        </mxCell>
        <mxCell id="XrXv45XWe5ub9CGLgNj5-10" value="&lt;font style=&quot;font-size: 20px;&quot;&gt;ResultDetails&lt;/font&gt;" style="rounded=0;whiteSpace=wrap;html=1;" parent="1" vertex="1">
          <mxGeometry x="1465" y="660" width="180" height="90" as="geometry" />
        </mxCell>
        <mxCell id="XrXv45XWe5ub9CGLgNj5-11" value="" style="endArrow=none;html=1;rounded=0;exitX=0.5;exitY=0;exitDx=0;exitDy=0;entryX=0.653;entryY=0.977;entryDx=0;entryDy=0;entryPerimeter=0;" parent="1" source="DHTgpNYXtuhxtt-2HGvQ-32" target="XrXv45XWe5ub9CGLgNj5-12" edge="1">
          <mxGeometry width="50" height="50" relative="1" as="geometry">
            <mxPoint x="1647.5" y="120" as="sourcePoint" />
            <mxPoint x="1807.5" y="70" as="targetPoint" />
          </mxGeometry>
        </mxCell>
        <mxCell id="XrXv45XWe5ub9CGLgNj5-12" value="&lt;span style=&quot;font-size: 18px;&quot;&gt;Date&lt;/span&gt;" style="ellipse;whiteSpace=wrap;html=1;" parent="1" vertex="1">
          <mxGeometry x="1270" y="-240" width="120" height="80" as="geometry" />
        </mxCell>
        <mxCell id="XrXv45XWe5ub9CGLgNj5-13" value="&lt;span style=&quot;font-size: 18px;&quot;&gt;Programme&lt;br&gt;Name&lt;/span&gt;" style="ellipse;whiteSpace=wrap;html=1;" parent="1" vertex="1">
          <mxGeometry x="1550" y="-240" width="120" height="80" as="geometry" />
        </mxCell>
        <mxCell id="XrXv45XWe5ub9CGLgNj5-14" value="&lt;span style=&quot;font-size: 18px;&quot;&gt;Correct Counter&lt;/span&gt;" style="ellipse;whiteSpace=wrap;html=1;" parent="1" vertex="1">
          <mxGeometry x="1690" y="-230" width="120" height="80" as="geometry" />
        </mxCell>
        <mxCell id="XrXv45XWe5ub9CGLgNj5-15" value="&lt;span style=&quot;font-size: 18px;&quot;&gt;Slug&lt;/span&gt;" style="ellipse;whiteSpace=wrap;html=1;" parent="1" vertex="1">
          <mxGeometry x="1740" y="-140" width="120" height="80" as="geometry" />
        </mxCell>
        <mxCell id="XrXv45XWe5ub9CGLgNj5-16" value="" style="endArrow=none;html=1;rounded=0;exitX=0.5;exitY=0;exitDx=0;exitDy=0;entryX=0.338;entryY=0.975;entryDx=0;entryDy=0;entryPerimeter=0;" parent="1" source="DHTgpNYXtuhxtt-2HGvQ-32" target="XrXv45XWe5ub9CGLgNj5-13" edge="1">
          <mxGeometry width="50" height="50" relative="1" as="geometry">
            <mxPoint x="1655" y="85" as="sourcePoint" />
            <mxPoint x="1757" y="23" as="targetPoint" />
          </mxGeometry>
        </mxCell>
        <mxCell id="XrXv45XWe5ub9CGLgNj5-17" value="" style="endArrow=none;html=1;rounded=0;exitX=0.5;exitY=0;exitDx=0;exitDy=0;entryX=0;entryY=1;entryDx=0;entryDy=0;" parent="1" source="DHTgpNYXtuhxtt-2HGvQ-32" target="XrXv45XWe5ub9CGLgNj5-14" edge="1">
          <mxGeometry width="50" height="50" relative="1" as="geometry">
            <mxPoint x="1655" y="85" as="sourcePoint" />
            <mxPoint x="1750" y="110" as="targetPoint" />
          </mxGeometry>
        </mxCell>
        <mxCell id="XrXv45XWe5ub9CGLgNj5-18" value="" style="endArrow=none;html=1;rounded=0;exitX=0.5;exitY=0;exitDx=0;exitDy=0;entryX=0.046;entryY=0.718;entryDx=0;entryDy=0;entryPerimeter=0;" parent="1" source="DHTgpNYXtuhxtt-2HGvQ-32" target="XrXv45XWe5ub9CGLgNj5-15" edge="1">
          <mxGeometry width="50" height="50" relative="1" as="geometry">
            <mxPoint x="1655" y="85" as="sourcePoint" />
            <mxPoint x="1750" y="210" as="targetPoint" />
          </mxGeometry>
        </mxCell>
        <mxCell id="XrXv45XWe5ub9CGLgNj5-21" value="" style="endArrow=none;html=1;rounded=0;exitX=0;exitY=0.5;exitDx=0;exitDy=0;entryX=0.954;entryY=0.693;entryDx=0;entryDy=0;entryPerimeter=0;" parent="1" source="XrXv45XWe5ub9CGLgNj5-10" target="XrXv45XWe5ub9CGLgNj5-22" edge="1">
          <mxGeometry width="50" height="50" relative="1" as="geometry">
            <mxPoint x="2015" y="830" as="sourcePoint" />
            <mxPoint x="1915" y="740" as="targetPoint" />
          </mxGeometry>
        </mxCell>
        <mxCell id="XrXv45XWe5ub9CGLgNj5-22" value="&lt;font style=&quot;font-size: 18px;&quot;&gt;&lt;u&gt;ID&lt;/u&gt;&lt;/font&gt;" style="ellipse;whiteSpace=wrap;html=1;" parent="1" vertex="1">
          <mxGeometry x="1270" y="600" width="120" height="80" as="geometry" />
        </mxCell>
        <mxCell id="XrXv45XWe5ub9CGLgNj5-23" value="" style="endArrow=none;html=1;rounded=0;exitX=0;exitY=0.5;exitDx=0;exitDy=0;entryX=0.741;entryY=0.062;entryDx=0;entryDy=0;entryPerimeter=0;" parent="1" source="XrXv45XWe5ub9CGLgNj5-10" target="XrXv45XWe5ub9CGLgNj5-24" edge="1">
          <mxGeometry width="50" height="50" relative="1" as="geometry">
            <mxPoint x="2015" y="830" as="sourcePoint" />
            <mxPoint x="2075" y="740" as="targetPoint" />
          </mxGeometry>
        </mxCell>
        <mxCell id="XrXv45XWe5ub9CGLgNj5-24" value="&lt;font style=&quot;font-size: 18px;&quot;&gt;ExamID&lt;/font&gt;" style="ellipse;whiteSpace=wrap;html=1;" parent="1" vertex="1">
          <mxGeometry x="1270" y="760" width="120" height="80" as="geometry" />
        </mxCell>
        <mxCell id="XrXv45XWe5ub9CGLgNj5-25" value="&lt;font style=&quot;font-size: 18px;&quot;&gt;QuestionID&lt;/font&gt;" style="ellipse;whiteSpace=wrap;html=1;" parent="1" vertex="1">
          <mxGeometry x="1410" y="810" width="120" height="80" as="geometry" />
        </mxCell>
        <mxCell id="XrXv45XWe5ub9CGLgNj5-26" value="" style="endArrow=none;html=1;rounded=0;exitX=0.5;exitY=1;exitDx=0;exitDy=0;entryX=0.648;entryY=0.025;entryDx=0;entryDy=0;entryPerimeter=0;" parent="1" source="XrXv45XWe5ub9CGLgNj5-10" target="XrXv45XWe5ub9CGLgNj5-25" edge="1">
          <mxGeometry width="50" height="50" relative="1" as="geometry">
            <mxPoint x="1565" y="760" as="sourcePoint" />
            <mxPoint x="1610" y="830" as="targetPoint" />
          </mxGeometry>
        </mxCell>
        <mxCell id="XrXv45XWe5ub9CGLgNj5-27" value="&lt;font style=&quot;font-size: 18px;&quot;&gt;UserAnswer&lt;/font&gt;" style="ellipse;whiteSpace=wrap;html=1;" parent="1" vertex="1">
          <mxGeometry x="1570" y="810" width="120" height="80" as="geometry" />
        </mxCell>
        <mxCell id="XrXv45XWe5ub9CGLgNj5-28" value="" style="endArrow=none;html=1;rounded=0;exitX=0.5;exitY=1;exitDx=0;exitDy=0;entryX=0.299;entryY=0.042;entryDx=0;entryDy=0;entryPerimeter=0;" parent="1" source="XrXv45XWe5ub9CGLgNj5-10" target="XrXv45XWe5ub9CGLgNj5-27" edge="1">
          <mxGeometry width="50" height="50" relative="1" as="geometry">
            <mxPoint x="1565" y="760" as="sourcePoint" />
            <mxPoint x="1673" y="833" as="targetPoint" />
          </mxGeometry>
        </mxCell>
        <mxCell id="XrXv45XWe5ub9CGLgNj5-29" value="&lt;font style=&quot;font-size: 20px;&quot;&gt;Programme&lt;/font&gt;" style="rounded=0;whiteSpace=wrap;html=1;" parent="1" vertex="1">
          <mxGeometry x="260" y="732.5" width="180" height="90" as="geometry" />
        </mxCell>
        <mxCell id="XrXv45XWe5ub9CGLgNj5-30" value="" style="endArrow=none;html=1;rounded=0;exitX=0.5;exitY=0;exitDx=0;exitDy=0;entryX=0.787;entryY=0.909;entryDx=0;entryDy=0;entryPerimeter=0;" parent="1" source="XrXv45XWe5ub9CGLgNj5-29" target="XrXv45XWe5ub9CGLgNj5-31" edge="1">
          <mxGeometry width="50" height="50" relative="1" as="geometry">
            <mxPoint x="370" y="792.5" as="sourcePoint" />
            <mxPoint x="250" y="642.5" as="targetPoint" />
          </mxGeometry>
        </mxCell>
        <mxCell id="XrXv45XWe5ub9CGLgNj5-31" value="&lt;font style=&quot;font-size: 18px;&quot;&gt;&lt;u&gt;ID&lt;/u&gt;&lt;/font&gt;" style="ellipse;whiteSpace=wrap;html=1;" parent="1" vertex="1">
          <mxGeometry x="170" y="567.5" width="120" height="80" as="geometry" />
        </mxCell>
        <mxCell id="XrXv45XWe5ub9CGLgNj5-32" value="" style="endArrow=none;html=1;rounded=0;exitX=0.5;exitY=0;exitDx=0;exitDy=0;entryX=0.5;entryY=1;entryDx=0;entryDy=0;" parent="1" source="XrXv45XWe5ub9CGLgNj5-29" target="XrXv45XWe5ub9CGLgNj5-33" edge="1">
          <mxGeometry width="50" height="50" relative="1" as="geometry">
            <mxPoint x="423" y="712.5" as="sourcePoint" />
            <mxPoint x="410" y="642.5" as="targetPoint" />
          </mxGeometry>
        </mxCell>
        <mxCell id="XrXv45XWe5ub9CGLgNj5-33" value="&lt;font style=&quot;font-size: 18px;&quot;&gt;Name&lt;/font&gt;" style="ellipse;whiteSpace=wrap;html=1;" parent="1" vertex="1">
          <mxGeometry x="320" y="567.5" width="120" height="80" as="geometry" />
        </mxCell>
        <mxCell id="XrXv45XWe5ub9CGLgNj5-57" value="" style="endArrow=none;html=1;rounded=0;exitX=0.5;exitY=1;exitDx=0;exitDy=0;entryX=0.5;entryY=0;entryDx=0;entryDy=0;" parent="1" source="XrXv45XWe5ub9CGLgNj5-29" target="XrXv45XWe5ub9CGLgNj5-58" edge="1">
          <mxGeometry width="50" height="50" relative="1" as="geometry">
            <mxPoint x="660" y="597.5" as="sourcePoint" />
            <mxPoint x="709" y="777.5" as="targetPoint" />
          </mxGeometry>
        </mxCell>
        <mxCell id="XrXv45XWe5ub9CGLgNj5-94" value="&lt;font style=&quot;font-size: 40px;&quot;&gt;1&lt;/font&gt;" style="edgeLabel;html=1;align=center;verticalAlign=middle;resizable=0;points=[];" parent="XrXv45XWe5ub9CGLgNj5-57" vertex="1" connectable="0">
          <mxGeometry x="-0.1694" relative="1" as="geometry">
            <mxPoint as="offset" />
          </mxGeometry>
        </mxCell>
        <mxCell id="XrXv45XWe5ub9CGLgNj5-58" value="&lt;font style=&quot;font-size: 30px;&quot;&gt;Has&lt;/font&gt;" style="rhombus;whiteSpace=wrap;html=1;" parent="1" vertex="1">
          <mxGeometry x="230" y="957.5" width="240" height="240" as="geometry" />
        </mxCell>
        <mxCell id="XrXv45XWe5ub9CGLgNj5-60" value="" style="endArrow=none;html=1;rounded=0;exitX=0.5;exitY=1;exitDx=0;exitDy=0;entryX=0.5;entryY=0;entryDx=0;entryDy=0;" parent="1" source="XrXv45XWe5ub9CGLgNj5-58" target="XrXv45XWe5ub9CGLgNj5-71" edge="1">
          <mxGeometry width="50" height="50" relative="1" as="geometry">
            <mxPoint x="360" y="1507.5" as="sourcePoint" />
            <mxPoint x="320" y="1447.5" as="targetPoint" />
          </mxGeometry>
        </mxCell>
        <mxCell id="XrXv45XWe5ub9CGLgNj5-95" value="&lt;font style=&quot;font-size: 40px;&quot;&gt;M&lt;/font&gt;" style="edgeLabel;html=1;align=center;verticalAlign=middle;resizable=0;points=[];" parent="XrXv45XWe5ub9CGLgNj5-60" vertex="1" connectable="0">
          <mxGeometry x="-0.1503" y="-1" relative="1" as="geometry">
            <mxPoint as="offset" />
          </mxGeometry>
        </mxCell>
        <mxCell id="XrXv45XWe5ub9CGLgNj5-71" value="&lt;font style=&quot;font-size: 20px;&quot;&gt;Subject&lt;/font&gt;" style="rounded=0;whiteSpace=wrap;html=1;" parent="1" vertex="1">
          <mxGeometry x="260" y="1422.5" width="180" height="90" as="geometry" />
        </mxCell>
        <mxCell id="XrXv45XWe5ub9CGLgNj5-72" value="" style="endArrow=none;html=1;rounded=0;exitX=0.5;exitY=1;exitDx=0;exitDy=0;entryX=1;entryY=0;entryDx=0;entryDy=0;" parent="1" source="XrXv45XWe5ub9CGLgNj5-71" target="XrXv45XWe5ub9CGLgNj5-73" edge="1">
          <mxGeometry width="50" height="50" relative="1" as="geometry">
            <mxPoint x="355" y="2002.5" as="sourcePoint" />
            <mxPoint x="255" y="1912.5" as="targetPoint" />
          </mxGeometry>
        </mxCell>
        <mxCell id="XrXv45XWe5ub9CGLgNj5-73" value="&lt;font style=&quot;font-size: 18px;&quot;&gt;&lt;u&gt;ID&lt;/u&gt;&lt;/font&gt;" style="ellipse;whiteSpace=wrap;html=1;" parent="1" vertex="1">
          <mxGeometry x="10" y="1612.5" width="120" height="80" as="geometry" />
        </mxCell>
        <mxCell id="XrXv45XWe5ub9CGLgNj5-74" value="" style="endArrow=none;html=1;rounded=0;exitX=0.5;exitY=1;exitDx=0;exitDy=0;entryX=1;entryY=0;entryDx=0;entryDy=0;" parent="1" source="XrXv45XWe5ub9CGLgNj5-71" target="XrXv45XWe5ub9CGLgNj5-75" edge="1">
          <mxGeometry width="50" height="50" relative="1" as="geometry">
            <mxPoint x="355" y="2002.5" as="sourcePoint" />
            <mxPoint x="415" y="1912.5" as="targetPoint" />
          </mxGeometry>
        </mxCell>
        <mxCell id="XrXv45XWe5ub9CGLgNj5-75" value="&lt;font style=&quot;font-size: 18px;&quot;&gt;ProgrammeID&lt;/font&gt;" style="ellipse;whiteSpace=wrap;html=1;" parent="1" vertex="1">
          <mxGeometry x="150" y="1612.5" width="120" height="80" as="geometry" />
        </mxCell>
        <mxCell id="XrXv45XWe5ub9CGLgNj5-76" value="&lt;font style=&quot;font-size: 18px;&quot;&gt;Name&lt;/font&gt;" style="ellipse;whiteSpace=wrap;html=1;" parent="1" vertex="1">
          <mxGeometry x="280" y="1612.5" width="120" height="80" as="geometry" />
        </mxCell>
        <mxCell id="XrXv45XWe5ub9CGLgNj5-77" value="" style="endArrow=none;html=1;rounded=0;exitX=0.5;exitY=1;exitDx=0;exitDy=0;entryX=0.5;entryY=0;entryDx=0;entryDy=0;" parent="1" source="XrXv45XWe5ub9CGLgNj5-71" target="XrXv45XWe5ub9CGLgNj5-76" edge="1">
          <mxGeometry width="50" height="50" relative="1" as="geometry">
            <mxPoint x="355" y="2002.5" as="sourcePoint" />
            <mxPoint x="315" y="1927.5" as="targetPoint" />
          </mxGeometry>
        </mxCell>
        <mxCell id="XrXv45XWe5ub9CGLgNj5-78" value="&lt;font style=&quot;font-size: 18px;&quot;&gt;TotalQuestionToSelect&lt;/font&gt;" style="ellipse;whiteSpace=wrap;html=1;" parent="1" vertex="1">
          <mxGeometry x="565" y="1587.5" width="195" height="130" as="geometry" />
        </mxCell>
        <mxCell id="XrXv45XWe5ub9CGLgNj5-79" value="" style="endArrow=none;html=1;rounded=0;entryX=0.342;entryY=0.025;entryDx=0;entryDy=0;exitX=0.5;exitY=1;exitDx=0;exitDy=0;entryPerimeter=0;" parent="1" source="XrXv45XWe5ub9CGLgNj5-71" target="XrXv45XWe5ub9CGLgNj5-78" edge="1">
          <mxGeometry width="50" height="50" relative="1" as="geometry">
            <mxPoint x="360" y="1927.5" as="sourcePoint" />
            <mxPoint x="444" y="1924.5" as="targetPoint" />
          </mxGeometry>
        </mxCell>
        <mxCell id="XrXv45XWe5ub9CGLgNj5-80" value="" style="endArrow=none;html=1;rounded=0;exitX=1;exitY=0.5;exitDx=0;exitDy=0;entryX=0;entryY=0.5;entryDx=0;entryDy=0;" parent="1" source="XrXv45XWe5ub9CGLgNj5-71" target="XrXv45XWe5ub9CGLgNj5-81" edge="1">
          <mxGeometry width="50" height="50" relative="1" as="geometry">
            <mxPoint x="640" y="1340" as="sourcePoint" />
            <mxPoint x="909" y="1340" as="targetPoint" />
          </mxGeometry>
        </mxCell>
        <mxCell id="XrXv45XWe5ub9CGLgNj5-96" value="&lt;font style=&quot;font-size: 40px;&quot;&gt;1&lt;/font&gt;" style="edgeLabel;html=1;align=center;verticalAlign=middle;resizable=0;points=[];" parent="XrXv45XWe5ub9CGLgNj5-80" vertex="1" connectable="0">
          <mxGeometry x="0.5313" y="-1" relative="1" as="geometry">
            <mxPoint as="offset" />
          </mxGeometry>
        </mxCell>
        <mxCell id="XrXv45XWe5ub9CGLgNj5-81" value="&lt;font style=&quot;font-size: 30px;&quot;&gt;Has&lt;/font&gt;" style="rhombus;whiteSpace=wrap;html=1;" parent="1" vertex="1">
          <mxGeometry x="910" y="1347.5" width="240" height="240" as="geometry" />
        </mxCell>
        <mxCell id="XrXv45XWe5ub9CGLgNj5-82" value="" style="endArrow=none;html=1;rounded=0;exitX=1;exitY=0.5;exitDx=0;exitDy=0;entryX=0;entryY=0.5;entryDx=0;entryDy=0;" parent="1" source="XrXv45XWe5ub9CGLgNj5-81" target="DHTgpNYXtuhxtt-2HGvQ-1" edge="1">
          <mxGeometry width="50" height="50" relative="1" as="geometry">
            <mxPoint x="1310" y="1380" as="sourcePoint" />
            <mxPoint x="1360" y="1340" as="targetPoint" />
          </mxGeometry>
        </mxCell>
        <mxCell id="XrXv45XWe5ub9CGLgNj5-97" value="&lt;font style=&quot;font-size: 40px;&quot;&gt;M&lt;/font&gt;" style="edgeLabel;html=1;align=center;verticalAlign=middle;resizable=0;points=[];" parent="XrXv45XWe5ub9CGLgNj5-82" vertex="1" connectable="0">
          <mxGeometry x="0.3055" relative="1" as="geometry">
            <mxPoint as="offset" />
          </mxGeometry>
        </mxCell>
        <mxCell id="XrXv45XWe5ub9CGLgNj5-84" value="&lt;font style=&quot;font-size: 30px;&quot;&gt;Has&lt;/font&gt;" style="rhombus;whiteSpace=wrap;html=1;" parent="1" vertex="1">
          <mxGeometry x="1720" y="930" width="240" height="240" as="geometry" />
        </mxCell>
        <mxCell id="zcM1rgJ_yoqVmevuXiZY-1" value="&lt;font style=&quot;font-size: 18px;&quot;&gt;Full Name&lt;/font&gt;" style="ellipse;whiteSpace=wrap;html=1;" parent="1" vertex="1">
          <mxGeometry x="530" y="-100" width="120" height="80" as="geometry" />
        </mxCell>
        <mxCell id="zcM1rgJ_yoqVmevuXiZY-4" value="" style="endArrow=none;html=1;rounded=0;exitX=0.069;exitY=0.753;exitDx=0;exitDy=0;entryX=0.5;entryY=0;entryDx=0;entryDy=0;exitPerimeter=0;" parent="1" source="zcM1rgJ_yoqVmevuXiZY-1" target="DHTgpNYXtuhxtt-2HGvQ-17" edge="1">
          <mxGeometry width="50" height="50" relative="1" as="geometry">
            <mxPoint x="480" y="140" as="sourcePoint" />
            <mxPoint x="430" y="10" as="targetPoint" />
          </mxGeometry>
        </mxCell>
        <mxCell id="zcM1rgJ_yoqVmevuXiZY-5" value="&lt;font style=&quot;font-size: 20px;&quot;&gt;ResultExtraDetails&lt;/font&gt;" style="rounded=0;whiteSpace=wrap;html=1;" parent="1" vertex="1">
          <mxGeometry x="580" y="-585" width="180" height="90" as="geometry" />
        </mxCell>
        <mxCell id="zcM1rgJ_yoqVmevuXiZY-6" value="" style="endArrow=none;html=1;rounded=0;exitX=0;exitY=0.5;exitDx=0;exitDy=0;entryX=0.5;entryY=1;entryDx=0;entryDy=0;" parent="1" source="DHTgpNYXtuhxtt-2HGvQ-17" target="zcM1rgJ_yoqVmevuXiZY-7" edge="1">
          <mxGeometry width="50" height="50" relative="1" as="geometry">
            <mxPoint x="540" y="100" as="sourcePoint" />
            <mxPoint x="-30" y="75" as="targetPoint" />
            <Array as="points">
              <mxPoint y="75" />
            </Array>
          </mxGeometry>
        </mxCell>
        <mxCell id="zcM1rgJ_yoqVmevuXiZY-27" value="&lt;font style=&quot;font-size: 40px;&quot;&gt;1&lt;/font&gt;" style="edgeLabel;html=1;align=center;verticalAlign=middle;resizable=0;points=[];" parent="zcM1rgJ_yoqVmevuXiZY-6" vertex="1" connectable="0">
          <mxGeometry x="0.6009" relative="1" as="geometry">
            <mxPoint as="offset" />
          </mxGeometry>
        </mxCell>
        <mxCell id="zcM1rgJ_yoqVmevuXiZY-7" value="&lt;font style=&quot;font-size: 30px;&quot;&gt;Has&lt;/font&gt;" style="rhombus;whiteSpace=wrap;html=1;" parent="1" vertex="1">
          <mxGeometry x="-120" y="-490" width="240" height="240" as="geometry" />
        </mxCell>
        <mxCell id="zcM1rgJ_yoqVmevuXiZY-8" value="" style="endArrow=none;html=1;rounded=1;exitX=0.5;exitY=0;exitDx=0;exitDy=0;entryX=0;entryY=0.5;entryDx=0;entryDy=0;" parent="1" source="zcM1rgJ_yoqVmevuXiZY-7" target="zcM1rgJ_yoqVmevuXiZY-5" edge="1">
          <mxGeometry width="50" height="50" relative="1" as="geometry">
            <mxPoint x="340" y="-140" as="sourcePoint" />
            <mxPoint x="390" y="-190" as="targetPoint" />
            <Array as="points">
              <mxPoint y="-540" />
            </Array>
          </mxGeometry>
        </mxCell>
        <mxCell id="zcM1rgJ_yoqVmevuXiZY-28" value="&lt;font style=&quot;font-size: 40px;&quot;&gt;1&lt;/font&gt;" style="edgeLabel;html=1;align=center;verticalAlign=middle;resizable=0;points=[];" parent="zcM1rgJ_yoqVmevuXiZY-8" vertex="1" connectable="0">
          <mxGeometry x="0.3093" y="-4" relative="1" as="geometry">
            <mxPoint as="offset" />
          </mxGeometry>
        </mxCell>
        <mxCell id="zcM1rgJ_yoqVmevuXiZY-9" value="&lt;font style=&quot;font-size: 18px;&quot;&gt;&lt;u&gt;ID&lt;/u&gt;&lt;/font&gt;" style="ellipse;whiteSpace=wrap;html=1;" parent="1" vertex="1">
          <mxGeometry x="480" y="-740" width="120" height="80" as="geometry" />
        </mxCell>
        <mxCell id="zcM1rgJ_yoqVmevuXiZY-10" value="&lt;font style=&quot;font-size: 18px;&quot;&gt;UserID&lt;/font&gt;" style="ellipse;whiteSpace=wrap;html=1;" parent="1" vertex="1">
          <mxGeometry x="630" y="-740" width="120" height="80" as="geometry" />
        </mxCell>
        <mxCell id="zcM1rgJ_yoqVmevuXiZY-11" value="&lt;font style=&quot;font-size: 18px;&quot;&gt;TestTaken&lt;/font&gt;" style="ellipse;whiteSpace=wrap;html=1;" parent="1" vertex="1">
          <mxGeometry x="770" y="-740" width="120" height="80" as="geometry" />
        </mxCell>
        <mxCell id="zcM1rgJ_yoqVmevuXiZY-12" value="&lt;font style=&quot;font-size: 18px;&quot;&gt;BIM&lt;/font&gt;" style="ellipse;whiteSpace=wrap;html=1;" parent="1" vertex="1">
          <mxGeometry x="780" y="-410" width="120" height="80" as="geometry" />
        </mxCell>
        <mxCell id="zcM1rgJ_yoqVmevuXiZY-13" value="&lt;font style=&quot;font-size: 18px;&quot;&gt;BIT&lt;/font&gt;" style="ellipse;whiteSpace=wrap;html=1;" parent="1" vertex="1">
          <mxGeometry x="520" y="-400" width="120" height="80" as="geometry" />
        </mxCell>
        <mxCell id="zcM1rgJ_yoqVmevuXiZY-14" value="&lt;font style=&quot;font-size: 18px;&quot;&gt;BCA&lt;/font&gt;" style="ellipse;whiteSpace=wrap;html=1;" parent="1" vertex="1">
          <mxGeometry x="400" y="-450" width="120" height="80" as="geometry" />
        </mxCell>
        <mxCell id="zcM1rgJ_yoqVmevuXiZY-15" value="&lt;font style=&quot;font-size: 18px;&quot;&gt;BSCSIT&lt;/font&gt;" style="ellipse;whiteSpace=wrap;html=1;" parent="1" vertex="1">
          <mxGeometry x="650" y="-400" width="120" height="80" as="geometry" />
        </mxCell>
        <mxCell id="zcM1rgJ_yoqVmevuXiZY-16" value="" style="endArrow=none;html=1;rounded=0;exitX=0.701;exitY=0.956;exitDx=0;exitDy=0;entryX=0.5;entryY=0;entryDx=0;entryDy=0;exitPerimeter=0;" parent="1" source="zcM1rgJ_yoqVmevuXiZY-9" target="zcM1rgJ_yoqVmevuXiZY-5" edge="1">
          <mxGeometry width="50" height="50" relative="1" as="geometry">
            <mxPoint x="590" y="-550" as="sourcePoint" />
            <mxPoint x="640" y="-600" as="targetPoint" />
          </mxGeometry>
        </mxCell>
        <mxCell id="zcM1rgJ_yoqVmevuXiZY-17" value="" style="endArrow=none;html=1;rounded=0;entryX=0.393;entryY=0.99;entryDx=0;entryDy=0;exitX=0.5;exitY=0;exitDx=0;exitDy=0;entryPerimeter=0;" parent="1" source="zcM1rgJ_yoqVmevuXiZY-5" target="zcM1rgJ_yoqVmevuXiZY-10" edge="1">
          <mxGeometry width="50" height="50" relative="1" as="geometry">
            <mxPoint x="590" y="-550" as="sourcePoint" />
            <mxPoint x="640" y="-600" as="targetPoint" />
          </mxGeometry>
        </mxCell>
        <mxCell id="zcM1rgJ_yoqVmevuXiZY-18" value="" style="endArrow=none;html=1;rounded=0;entryX=0;entryY=1;entryDx=0;entryDy=0;exitX=0.5;exitY=0;exitDx=0;exitDy=0;" parent="1" source="zcM1rgJ_yoqVmevuXiZY-5" target="zcM1rgJ_yoqVmevuXiZY-11" edge="1">
          <mxGeometry width="50" height="50" relative="1" as="geometry">
            <mxPoint x="590" y="-550" as="sourcePoint" />
            <mxPoint x="640" y="-600" as="targetPoint" />
          </mxGeometry>
        </mxCell>
        <mxCell id="zcM1rgJ_yoqVmevuXiZY-19" value="" style="endArrow=none;html=1;rounded=0;exitX=1;exitY=0;exitDx=0;exitDy=0;entryX=0.5;entryY=1;entryDx=0;entryDy=0;" parent="1" source="zcM1rgJ_yoqVmevuXiZY-14" target="zcM1rgJ_yoqVmevuXiZY-5" edge="1">
          <mxGeometry width="50" height="50" relative="1" as="geometry">
            <mxPoint x="590" y="-550" as="sourcePoint" />
            <mxPoint x="640" y="-600" as="targetPoint" />
          </mxGeometry>
        </mxCell>
        <mxCell id="zcM1rgJ_yoqVmevuXiZY-20" value="" style="endArrow=none;html=1;rounded=0;exitX=0.718;exitY=0.051;exitDx=0;exitDy=0;entryX=0.5;entryY=1;entryDx=0;entryDy=0;exitPerimeter=0;" parent="1" source="zcM1rgJ_yoqVmevuXiZY-13" target="zcM1rgJ_yoqVmevuXiZY-5" edge="1">
          <mxGeometry width="50" height="50" relative="1" as="geometry">
            <mxPoint x="590" y="-550" as="sourcePoint" />
            <mxPoint x="640" y="-600" as="targetPoint" />
          </mxGeometry>
        </mxCell>
        <mxCell id="zcM1rgJ_yoqVmevuXiZY-21" value="" style="endArrow=none;html=1;rounded=0;entryX=0.5;entryY=1;entryDx=0;entryDy=0;exitX=0.494;exitY=-0.001;exitDx=0;exitDy=0;exitPerimeter=0;" parent="1" source="zcM1rgJ_yoqVmevuXiZY-15" target="zcM1rgJ_yoqVmevuXiZY-5" edge="1">
          <mxGeometry width="50" height="50" relative="1" as="geometry">
            <mxPoint x="710" y="-400" as="sourcePoint" />
            <mxPoint x="640" y="-600" as="targetPoint" />
          </mxGeometry>
        </mxCell>
        <mxCell id="zcM1rgJ_yoqVmevuXiZY-22" value="" style="endArrow=none;html=1;rounded=0;exitX=0.312;exitY=0.038;exitDx=0;exitDy=0;entryX=0.5;entryY=1;entryDx=0;entryDy=0;exitPerimeter=0;" parent="1" source="zcM1rgJ_yoqVmevuXiZY-12" target="zcM1rgJ_yoqVmevuXiZY-5" edge="1">
          <mxGeometry width="50" height="50" relative="1" as="geometry">
            <mxPoint x="590" y="-550" as="sourcePoint" />
            <mxPoint x="640" y="-600" as="targetPoint" />
          </mxGeometry>
        </mxCell>
        <mxCell id="zcM1rgJ_yoqVmevuXiZY-23" value="" style="endArrow=none;html=1;rounded=1;exitX=1;exitY=0.5;exitDx=0;exitDy=0;entryX=0.5;entryY=0;entryDx=0;entryDy=0;" parent="1" source="XrXv45XWe5ub9CGLgNj5-10" target="XrXv45XWe5ub9CGLgNj5-84" edge="1">
          <mxGeometry width="50" height="50" relative="1" as="geometry">
            <mxPoint x="1470" y="790" as="sourcePoint" />
            <mxPoint x="1520" y="740" as="targetPoint" />
            <Array as="points">
              <mxPoint x="1840" y="705" />
            </Array>
          </mxGeometry>
        </mxCell>
        <mxCell id="zcM1rgJ_yoqVmevuXiZY-24" value="&lt;font style=&quot;font-size: 40px;&quot;&gt;1&lt;/font&gt;" style="edgeLabel;html=1;align=center;verticalAlign=middle;resizable=0;points=[];" parent="zcM1rgJ_yoqVmevuXiZY-23" vertex="1" connectable="0">
          <mxGeometry x="0.5126" y="-1" relative="1" as="geometry">
            <mxPoint as="offset" />
          </mxGeometry>
        </mxCell>
        <mxCell id="zcM1rgJ_yoqVmevuXiZY-25" value="" style="endArrow=none;html=1;rounded=1;exitX=0.5;exitY=1;exitDx=0;exitDy=0;entryX=1;entryY=0.5;entryDx=0;entryDy=0;" parent="1" source="XrXv45XWe5ub9CGLgNj5-84" target="DHTgpNYXtuhxtt-2HGvQ-1" edge="1">
          <mxGeometry width="50" height="50" relative="1" as="geometry">
            <mxPoint x="1210" y="1510" as="sourcePoint" />
            <mxPoint x="1260" y="1460" as="targetPoint" />
            <Array as="points">
              <mxPoint x="1840" y="1468" />
            </Array>
          </mxGeometry>
        </mxCell>
        <mxCell id="zcM1rgJ_yoqVmevuXiZY-26" value="&lt;font style=&quot;font-size: 40px;&quot;&gt;M&lt;/font&gt;" style="edgeLabel;html=1;align=center;verticalAlign=middle;resizable=0;points=[];" parent="zcM1rgJ_yoqVmevuXiZY-25" vertex="1" connectable="0">
          <mxGeometry x="-0.5741" relative="1" as="geometry">
            <mxPoint as="offset" />
          </mxGeometry>
        </mxCell>
        <mxCell id="249gK-j1oSxNWtYgIH_e-1" value="&lt;font style=&quot;font-size: 18px;&quot;&gt;TotalQuestions&lt;/font&gt;" style="ellipse;whiteSpace=wrap;html=1;" vertex="1" parent="1">
          <mxGeometry x="460" y="567.5" width="123.75" height="82.5" as="geometry" />
        </mxCell>
        <mxCell id="249gK-j1oSxNWtYgIH_e-2" value="" style="endArrow=none;html=1;rounded=0;exitX=0.5;exitY=0;exitDx=0;exitDy=0;entryX=0;entryY=1;entryDx=0;entryDy=0;" edge="1" parent="1" source="XrXv45XWe5ub9CGLgNj5-29" target="249gK-j1oSxNWtYgIH_e-1">
          <mxGeometry width="50" height="50" relative="1" as="geometry">
            <mxPoint x="360" y="743" as="sourcePoint" />
            <mxPoint x="390" y="658" as="targetPoint" />
          </mxGeometry>
        </mxCell>
        <mxCell id="249gK-j1oSxNWtYgIH_e-3" value="&lt;font style=&quot;font-size: 18px;&quot;&gt;TotalQuestions&lt;/font&gt;" style="ellipse;whiteSpace=wrap;html=1;" vertex="1" parent="1">
          <mxGeometry x="410" y="1606.25" width="138.75" height="92.5" as="geometry" />
        </mxCell>
        <mxCell id="249gK-j1oSxNWtYgIH_e-4" value="" style="endArrow=none;html=1;rounded=0;exitX=0.5;exitY=1;exitDx=0;exitDy=0;entryX=0.264;entryY=0.054;entryDx=0;entryDy=0;entryPerimeter=0;" edge="1" parent="1" source="XrXv45XWe5ub9CGLgNj5-71" target="249gK-j1oSxNWtYgIH_e-3">
          <mxGeometry width="50" height="50" relative="1" as="geometry">
            <mxPoint x="360" y="1523" as="sourcePoint" />
            <mxPoint x="350" y="1623" as="targetPoint" />
          </mxGeometry>
        </mxCell>
      </root>
    </mxGraphModel>
  </diagram>
</mxfile>
